<?xml version="1.0" standalone="no"?><!DOCTYPE svg PUBLIC "-//W3C//DTD SVG 1.1//EN" "http://www.w3.org/Graphics/SVG/1.1/DTD/svg11.dtd"><svg t="1693398244213" class="icon" viewBox="0 0 1024 1024" version="1.1" xmlns="http://www.w3.org/2000/svg" p-id="48367" xmlns:xlink="http://www.w3.org/1999/xlink" width="20" height="20"><path d="M748.8 64H275.2C123.733333 64 0 187.733333 0 339.2V682.666667c0 153.6 123.733333 277.333333 275.2 277.333333H746.666667c153.6 0 277.333333-123.733333 277.333333-275.2V339.2C1024 187.733333 900.266667 64 748.8 64z m-40.533333 371.2l-209.066667 209.066667-4.266667 4.266666c-14.933333 14.933333-40.533333 14.933333-55.466666 0l-125.866667-125.866666c-14.933333-14.933333-14.933333-40.533333 0-55.466667l4.266667-4.266667c14.933333-14.933333 40.533333-14.933333 55.466666 0l91.733334 91.733334 181.333333-181.333334c17.066667-17.066667 44.8-17.066667 59.733333 0 19.2 19.2 19.2 46.933333 2.133334 61.866667z" p-id="48368" fill="#40db98"></path></svg>