<?xml version="1.0" standalone="no"?><!DOCTYPE svg PUBLIC "-//W3C//DTD SVG 1.1//EN" "http://www.w3.org/Graphics/SVG/1.1/DTD/svg11.dtd"><svg t="1693649694615" class="icon" viewBox="0 0 1024 1024" version="1.1" xmlns="http://www.w3.org/2000/svg" p-id="18689" width="21" height="21" xmlns:xlink="http://www.w3.org/1999/xlink"><path d="M725.333333 362.666667h64a42.666667 42.666667 0 0 1 42.666667 42.666666v256a42.666667 42.666667 0 0 1-42.666667 42.666667h-21.333333v-21.333333a85.333333 85.333333 0 0 0-85.333333-85.333334H341.333333a85.333333 85.333333 0 0 0-85.333333 85.333334v21.333333h-21.333333a42.666667 42.666667 0 0 1-42.666667-42.666667V405.333333a42.666667 42.666667 0 0 1 42.666667-42.666666h490.666666z m0-42.666667H298.666667v-85.333333a42.666667 42.666667 0 0 1 42.666666-42.666667h341.333334a42.666667 42.666667 0 0 1 42.666666 42.666667v85.333333zM341.333333 640h341.333334a42.666667 42.666667 0 0 1 42.666666 42.666667v106.666666a42.666667 42.666667 0 0 1-42.666666 42.666667H341.333333a42.666667 42.666667 0 0 1-42.666666-42.666667v-106.666666a42.666667 42.666667 0 0 1 42.666666-42.666667z m-21.333333-213.333333a21.333333 21.333333 0 0 0 0 42.666666h85.333333a21.333333 21.333333 0 0 0 0-42.666666h-85.333333z" fill="#40db98" p-id="18690"></path></svg>