<?xml version="1.0" standalone="no"?><!DOCTYPE svg PUBLIC "-//W3C//DTD SVG 1.1//EN" "http://www.w3.org/Graphics/SVG/1.1/DTD/svg11.dtd"><svg t="1693405832899" class="icon" viewBox="0 0 1024 1024" version="1.1" xmlns="http://www.w3.org/2000/svg" p-id="54203" width="18" height="18" xmlns:xlink="http://www.w3.org/1999/xlink"><path d="M845.290667 369.109333A85.333333 85.333333 0 1 1 682.666667 405.333333a85.333333 85.333333 0 1 1-170.666667 0 85.333333 85.333333 0 1 1-170.666667 0 85.333333 85.333333 0 1 1-162.624-36.224l27.2-122.368A42.666667 42.666667 0 0 1 247.552 213.333333h528.896a42.666667 42.666667 0 0 1 41.642667 33.408l27.2 122.368z m-35.2 157.141334c0.384 2.304 0.576 4.672 0.576 7.082666v256a42.666667 42.666667 0 0 1-42.666667 42.666667H256a42.666667 42.666667 0 0 1-42.666667-42.666667V533.333333c0-2.410667 0.213333-4.778667 0.576-7.082666A127.808 127.808 0 0 0 256 533.333333a127.530667 127.530667 0 0 0 85.333333-32.597333A127.530667 127.530667 0 0 0 426.666667 533.333333a127.530667 127.530667 0 0 0 85.333333-32.597333A127.530667 127.530667 0 0 0 597.333333 533.333333a127.530667 127.530667 0 0 0 85.333334-32.597333A127.530667 127.530667 0 0 0 768 533.333333c14.741333 0 28.906667-2.496 42.090667-7.082666zM352 618.666667a32 32 0 0 0-32 32v64a32 32 0 0 0 64 0v-64a32 32 0 0 0-32-32z" fill="#40db98" p-id="54204"></path></svg>