<?xml version="1.0" standalone="no"?><!DOCTYPE svg PUBLIC "-//W3C//DTD SVG 1.1//EN" "http://www.w3.org/Graphics/SVG/1.1/DTD/svg11.dtd"><svg t="1693573315527" class="icon" viewBox="0 0 1024 1024" version="1.1" xmlns="http://www.w3.org/2000/svg" p-id="15297" width="16" height="16" xmlns:xlink="http://www.w3.org/1999/xlink"><path d="M426.246305 0h171.50739c64.063054 0 116.019704 51.95665 116.019704 116.019704s-51.95665 116.019704-116.019704 116.019705h-171.50739c-64.063054 0-116.019704-51.95665-116.019704-116.019705s51.95665-116.019704 116.019704-116.019704z" fill="#40db98" p-id="15298"></path><path d="M973.55665 131.152709H50.44335C22.699507 131.152709 0 153.852217 0 181.596059s22.699507 50.44335 50.44335 50.44335h90.545813l47.921182 651.728079c5.800985 78.943842 71.629557 140.232512 150.825616 140.232512h341.753694c79.196059 0 145.024631-61.28867 150.825616-140.232512L880.236453 232.039409h93.320197c27.743842 0 50.44335-22.699507 50.44335-50.44335s-22.699507-50.44335-50.44335-50.44335z m-241.623645 745.300493c-2.017734 26.230542-23.960591 46.660099-50.191133 46.660098H339.988177c-26.482759 0-48.173399-20.429557-50.191133-46.660098L242.128079 232.039409h537.221675l-47.416749 644.413793z" fill="#40db98" p-id="15299"></path><path d="M451.46798 857.536946h118.541872c27.743842 0 50.44335-22.699507 50.44335-50.44335s-22.699507-50.44335-50.44335-50.44335h-118.541872c-27.743842 0-50.44335 22.699507-50.443349 50.44335s22.699507 50.44335 50.443349 50.44335z" fill="#40db98" p-id="15300"></path></svg>