<?xml version="1.0" standalone="no"?><!DOCTYPE svg PUBLIC "-//W3C//DTD SVG 1.1//EN" "http://www.w3.org/Graphics/SVG/1.1/DTD/svg11.dtd"><svg t="1693017902927" class="icon" viewBox="0 0 1024 1024" version="1.1" xmlns="http://www.w3.org/2000/svg" p-id="8856" xmlns:xlink="http://www.w3.org/1999/xlink" width="64" height="64"><path d="M160 32c-12.0064 0-24.8064 4.8-33.6 14.4-8.8064 9.6-14.4 21.6064-14.4 33.6v864c0 12.0064 4.8 24.8064 14.4 33.6 9.6 9.6 21.6064 14.4 33.6 14.4h704c12.0064 0 24.8064-4.8 33.6-14.4 9.6-9.6 14.4-21.6064 14.4-33.6v-640L640 32H160z" fill="#6CCBFF" p-id="8857"></path><path d="M912 304h-224c-12.0064 0-24.8064-4.8-33.6-14.4C644.8 280.7936 640 267.9936 640 256V32l272 272z" fill="#C4EAFF" p-id="8858"></path><path d="M280 385.6h64.8064L409.6 629.6064h0.8064l71.1936-244.0064H544l72 244.0064 65.6-244.0064h62.4l-96 314.4064h-64.8064L512 458.3808h-0.8064l-71.9872 240.8064H374.4z" fill="#FFFFFF" p-id="8859"></path></svg>